# xmcd CD database file
#
# Track frame offsets:
#	150
#	20724
#	39496
#	55577
#	72827
#	87890
#	107629
#
# Disc length: 1610 seconds
#
# Revision: 0
# Processed by: cddbd v1.5.2PL0 Copyright (c) Steve Scherf et al.
# Submitted via: CDex 1.86
#
DISCID=52064807
DTITLE=Travis Collins And Amber Lawrence - Our Backyard
DYEAR=2017
DGENRE=Country
TTITLE0=Our Backyard
TTITLE1=Millionaire
TTITLE2=Here I Stand
TTITLE3=Boxes
TTITLE4=Drink
TTITLE5=How Good You Got It
TTITLE6=In Reverse
EXTD=YEAR: 2017
EXTT0=
EXTT1=
EXTT2=
EXTT3=
EXTT4=
EXTT5=
EXTT6=
PLAYORDER=
